<svg xmlns="http://www.w3.org/2000/svg" width="287.6" height="51.8" viewBox="0 0 287.6 51.8"><defs><style>.a{fill:#c6579a;}.b{fill:#00468b;}.c{fill:#fff;}.d{fill:#003087;}</style></defs><path class="a" d="M67.8,48.9c.1.5.1.9.2.9h0a5.1,5.1,0,0,1,.1-.9l1.4-6h1.6l-2.2,8.6H67.1l-1.3-5.1c-.1-.6-.2-1.1-.2-1.1h0s-.1.6-.2,1.1L64,51.6H62.2L60,42.9h1.6l1.4,6a5.1,5.1,0,0,1,.1.9h0a2.679,2.679,0,0,1,.2-.9l1.6-6h1.4Z"/><path class="a" d="M72.3,42.9h1.5v3.5h0a2.391,2.391,0,0,1,2.1-1.2c1.4,0,2.1.7,2.1,2.4v4H76.5V47.9c0-.8-.2-1.3-1-1.3a1.8,1.8,0,0,0-1.7,1.3,1.949,1.949,0,0,0-.1.8v2.8H72.2V42.9Z"/><path class="a" d="M82.4,45.2a2.625,2.625,0,0,1,2.7,2.9v.6H80.8a1.714,1.714,0,0,0,1.9,1.6,3.069,3.069,0,0,0,1.8-.7l.6,1.1a3.7,3.7,0,0,1-2.5.9,3.183,3.183,0,0,1-3.3-3.2A3.077,3.077,0,0,1,82.4,45.2Zm1.2,2.5a1.184,1.184,0,0,0-1.2-1.3,1.5,1.5,0,0,0-1.5,1.3Z"/><path class="a" d="M86.4,45.4h1.5v1.5h0a2.132,2.132,0,0,1,2-1.6h.3v1.5h-.4a1.765,1.765,0,0,0-1.7,1.3,3.083,3.083,0,0,0-.1,1v2.5H86.5V45.4Z"/><path class="a" d="M93.9,45.2a2.625,2.625,0,0,1,2.7,2.9v.6H92.3a1.714,1.714,0,0,0,1.9,1.6,3.069,3.069,0,0,0,1.8-.7l.6,1.1a3.7,3.7,0,0,1-2.5.9,3.183,3.183,0,0,1-3.3-3.2A3.077,3.077,0,0,1,93.9,45.2Zm1.2,2.5a1.184,1.184,0,0,0-1.2-1.3,1.5,1.5,0,0,0-1.5,1.3Z"/><path class="a" d="M101.2,46.7h-.8V45.5h.8V43.7h1.5v1.8h1.4v1.2h-1.4v2.4a1.133,1.133,0,0,0,1.2,1.2h.3v1.3h-.5a2.286,2.286,0,0,1-2.6-2.3V46.7Z"/><path class="a" d="M105.5,42.9H107v3.5h0a2.391,2.391,0,0,1,2.1-1.2c1.4,0,2.1.7,2.1,2.4v4h-1.5V47.9c0-.8-.2-1.3-1-1.3a1.8,1.8,0,0,0-1.7,1.3,1.949,1.949,0,0,0-.1.8v2.8h-1.5V42.9Z"/><path class="a" d="M115.6,45.2a2.625,2.625,0,0,1,2.7,2.9v.6H114a1.714,1.714,0,0,0,1.9,1.6,3.069,3.069,0,0,0,1.8-.7l.6,1.1a3.7,3.7,0,0,1-2.5.9,3.183,3.183,0,0,1-3.3-3.2A3.077,3.077,0,0,1,115.6,45.2Zm1.2,2.5a1.184,1.184,0,0,0-1.2-1.3,1.5,1.5,0,0,0-1.5,1.3Z"/><path class="a" d="M121.9,45.4h1.6l1.1,4.1a2.639,2.639,0,0,1,.1.7h0a2.442,2.442,0,0,0,.1-.7l1.1-4.1h1.4l1.1,4.1a2.638,2.638,0,0,1,.1.7h0a3.2,3.2,0,0,1,.1-.7l1.1-4.1h1.6l-1.9,6.2h-1.7l-1-3.5c-.1-.3-.2-.7-.2-.7h0a3.2,3.2,0,0,1-.1.7l-1,3.5h-1.7Z"/><path class="a" d="M135.5,45.2a3.206,3.206,0,1,1-3.4,3.2A3.27,3.27,0,0,1,135.5,45.2Zm0,5.2a1.9,1.9,0,1,0-1.8-1.9A1.76,1.76,0,0,0,135.5,50.4Z"/><path class="a" d="M140.1,45.4h1.5v1.5h0a2.132,2.132,0,0,1,2-1.6h.3v1.5h-.4a1.765,1.765,0,0,0-1.7,1.3,3.083,3.083,0,0,0-.1,1v2.5h-1.5V45.4Z"/><path class="a" d="M144.8,42.9h1.5v6.5c0,.7.2.8.6.8h.2v1.3h-.5c-.8,0-1.9-.2-1.9-2V42.9Z"/><path class="a" d="M150.7,45.2a1.9,1.9,0,0,1,1.8.8h0V42.9H154v8.6h-1.5v-.9h0a2.08,2.08,0,0,1-1.9,1.1c-1.7,0-2.7-1.3-2.7-3.2C147.9,46.5,149.1,45.2,150.7,45.2Zm.3,5.2c.8,0,1.6-.6,1.6-2,0-1-.5-1.9-1.5-1.9a1.729,1.729,0,0,0-1.6,1.9C149.5,49.6,150.1,50.4,151,50.4Z"/><path class="a" d="M161.6,45.2a3.3,3.3,0,0,1,2.4.9l-.7,1.1a2.245,2.245,0,0,0-1.6-.7,1.9,1.9,0,0,0,0,3.8,2.9,2.9,0,0,0,1.8-.8l.6,1.1a3.526,3.526,0,0,1-2.5,1,3.21,3.21,0,0,1-3.4-3.2A3.334,3.334,0,0,1,161.6,45.2Z"/><path class="a" d="M168.3,45.2a3.206,3.206,0,1,1-3.4,3.2A3.27,3.27,0,0,1,168.3,45.2Zm0,5.2a1.9,1.9,0,1,0-1.8-1.9A1.76,1.76,0,0,0,168.3,50.4Z"/><path class="a" d="M172.9,45.4h1.5v1.1h0a2.3,2.3,0,0,1,2-1.3,1.656,1.656,0,0,1,1.8,1.3h0a2.282,2.282,0,0,1,2.1-1.3c1.3,0,2,.7,2,2.4v4h-1.5V47.9c0-.7-.1-1.2-.8-1.2a1.6,1.6,0,0,0-1.5,1.4,1.949,1.949,0,0,0-.1.8v2.7h-1.5V47.9c0-.7-.1-1.2-.8-1.2a1.6,1.6,0,0,0-1.5,1.4,1.949,1.949,0,0,0-.1.8v2.7H173V45.4Z"/><path class="a" d="M186.7,45.2a2.625,2.625,0,0,1,2.7,2.9v.6h-4.3a1.714,1.714,0,0,0,1.9,1.6,3.069,3.069,0,0,0,1.8-.7l.6,1.1a3.7,3.7,0,0,1-2.5.9,3.124,3.124,0,0,1-3.3-3.2A2.964,2.964,0,0,1,186.7,45.2Zm1.2,2.5a1.184,1.184,0,0,0-1.2-1.3,1.5,1.5,0,0,0-1.5,1.3Z"/><path class="a" d="M190.9,49.7a2.632,2.632,0,0,0,1.7.7c.4,0,.8-.2.8-.6,0-.9-3-.8-3-2.8,0-1.2,1-1.8,2.4-1.8a3.066,3.066,0,0,1,2.1.7l-.6,1.1a2.522,2.522,0,0,0-1.5-.5c-.4,0-.8.2-.8.6,0,.9,3,.8,3,2.8,0,1-.9,1.9-2.4,1.9a3.593,3.593,0,0,1-2.4-.9Z"/><path class="a" d="M199.5,46.7h-.8V45.5h.8v-.3a2.252,2.252,0,0,1,2.5-2.3h.5v1.3h-.3c-.4,0-1.2.1-1.2,1v.2h1.3v1.2H201v4.9h-1.5Z"/><path class="a" d="M206.3,45.2a3.206,3.206,0,1,1-3.4,3.2A3.27,3.27,0,0,1,206.3,45.2Zm0,5.2a1.9,1.9,0,1,0-1.8-1.9A1.817,1.817,0,0,0,206.3,50.4Z"/><path class="a" d="M210.9,45.4h1.5v1.5h0a2.132,2.132,0,0,1,2-1.6h.3v1.5h-.4a1.765,1.765,0,0,0-1.7,1.3,3.083,3.083,0,0,0-.1,1v2.5H211V45.4Z"/><path class="a" d="M221.8,47.7h.2v-.1c0-.8-.5-1.1-1.2-1.1a3.238,3.238,0,0,0-1.7.6l-.6-1.1a4.184,4.184,0,0,1,2.4-.8,2.341,2.341,0,0,1,2.6,2.5v3.9h-1.4v-1h0a2.08,2.08,0,0,1-1.9,1.1,1.947,1.947,0,0,1-2.1-1.9C218.1,47.8,220.8,47.7,221.8,47.7Zm-1.2,2.8a1.617,1.617,0,0,0,1.4-1.6v-.1h-.3c-.8,0-2.1.1-2.1,1A1.017,1.017,0,0,0,220.6,50.5Z"/><path class="a" d="M225.1,45.4h1.5v1.1h0a2.431,2.431,0,0,1,2.2-1.3c1.4,0,2.1.7,2.1,2.4v4h-1.5V47.9c0-.8-.2-1.3-1-1.3a1.8,1.8,0,0,0-1.7,1.3,2.2,2.2,0,0,0-.1.8v2.8h-1.5Z"/><path class="a" d="M232.8,49.7a2.632,2.632,0,0,0,1.7.7c.4,0,.8-.2.8-.6,0-.9-3-.8-3-2.8,0-1.2,1-1.8,2.4-1.8a3.066,3.066,0,0,1,2.1.7l-.6,1.1a2.522,2.522,0,0,0-1.5-.5c-.4,0-.8.2-.8.6,0,.9,3,.8,3,2.8,0,1-.9,1.9-2.4,1.9a3.593,3.593,0,0,1-2.4-.9Z"/><path class="a" d="M237.4,45.4H239l1.1,4.1a2.638,2.638,0,0,1,.1.7h0a2.442,2.442,0,0,0,.1-.7l1.1-4.1h1.4l1.1,4.1a2.638,2.638,0,0,1,.1.7h0a3.2,3.2,0,0,1,.1-.7l1.1-4.1h1.6l-1.9,6.2h-1.7l-1-3.5c-.1-.3-.2-.7-.2-.7h0a3.2,3.2,0,0,1-.1.7l-1,3.5h-1.7Z"/><path class="a" d="M250.7,45.2a2.625,2.625,0,0,1,2.7,2.9v.6h-4.3a1.714,1.714,0,0,0,1.9,1.6,3.069,3.069,0,0,0,1.8-.7l.6,1.1a3.7,3.7,0,0,1-2.5.9,3.124,3.124,0,0,1-3.3-3.2A3.077,3.077,0,0,1,250.7,45.2Zm1.2,2.5a1.184,1.184,0,0,0-1.2-1.3,1.5,1.5,0,0,0-1.5,1.3Z"/><path class="a" d="M254.7,45.4h1.5v1.5h0a2.132,2.132,0,0,1,2-1.6h.3v1.5h-.4a1.765,1.765,0,0,0-1.7,1.3,3.083,3.083,0,0,0-.1,1v2.5h-1.5V45.4Z"/><path class="a" d="M259.7,49.7a2.632,2.632,0,0,0,1.7.7c.4,0,.8-.2.8-.6,0-.9-3-.8-3-2.8,0-1.2,1-1.8,2.4-1.8a3.066,3.066,0,0,1,2.1.7l-.6,1.1a2.522,2.522,0,0,0-1.5-.5c-.4,0-.8.2-.8.6,0,.9,3,.8,3,2.8,0,1-.9,1.9-2.4,1.9a3.593,3.593,0,0,1-2.4-.9Z"/><path class="b" d="M39.6,24.8c0,13.7-8.9,24.8-19.8,24.8S0,38.5,0,24.8,8.9,0,19.8,0C30.8,0,39.6,11.1,39.6,24.8Z"/><path class="c" d="M19.8,47.8c-10,0-18.1-10.3-18.1-23s8.1-23,18.1-23,18.1,10.3,18.1,23-8.1,23-18.1,23Zm0-44.9c-9.4,0-17,9.8-17,21.9s7.6,21.9,17,21.9,17-9.8,17-21.9S29.2,2.9,19.8,2.9Z"/><path class="c" d="M25.1,9.1h0a3.36,3.36,0,0,1-1.4.5c-.1,0-.3,0-.3.2v.1a13.735,13.735,0,0,0,2,1.3V9.5h.1c1.5.8,2.8,1.6,4.3,2.5h0a13.272,13.272,0,0,0-2.1.9,35.359,35.359,0,0,1-4.1-2.6c-1-.8-2.1-1.6-3.1-2.4,0-.1.1-.2.1-.3a14.919,14.919,0,0,1,.2-2.1l.2.1Z"/><path class="c" d="M26,7.8c1.3,1.1,2.2,2.2,3.4,3.4a24.172,24.172,0,0,1-6-4,17.115,17.115,0,0,1-2-1.8h.1Z"/><path class="c" d="M19.3,8.6c.3.4.5,1.1,1,1.2a.187.187,0,0,1,0,.3.192.192,0,0,0-.1.3c.4.1,1,.2,1.2.6-.1.5.5.3.7.4,1.6.5,2.7,1.8,4.1,2.5a1.421,1.421,0,0,1,.2.6c-.1.2-.3,0-.4.1a.735.735,0,0,1-.4.8c-.4.2-.8,0-1.3.3-.4,0-.8-.3-1.1,0,0,.2,0,.3.2.3a.829.829,0,0,1,.8.3,1.077,1.077,0,0,1-.2.8c-.1.1-.3.1-.3.3v.1c.8,0,.9-1.5,1.8-.9a7.322,7.322,0,0,1,.8,2.5c.3.1.4-.2.7,0,.4.6.4,1.3.8,1.9,0,.3-.8.3-.3.6.3,0,.5-.3.8-.1,1,1.1,2.9,1.7,3,3.6A11.6,11.6,0,0,1,29,34.2c-1.1,1.8-1.9,3.9-3.6,5.2A12.623,12.623,0,0,1,22,40.7a12.478,12.478,0,0,1-5.1.3c-.7-.5-.5-1.5-.6-2.4,0-.9,1.1-.5,1.7-.8a8,8,0,0,0,4.7-2,.454.454,0,0,1,.5,0c.3.2.2.8.5.5.4-.5-.1-.9,0-1.4.1-.1.2,0,.3,0,.2.2.2.6.5.7.2,0,.3-.2.4-.3,0-.2,0-.5-.2-.6-.2-.3-.7-.1-.8-.5a11.753,11.753,0,0,1,1.2-3.6,18.715,18.715,0,0,1,2.5-4.1h0c-.8.3-1.2,1.2-1.7,1.9-.8,1.4-1.6,2.8-2.3,4.3-.1.1-.2.3-.3.3a8.552,8.552,0,0,1,0-1.6A25.22,25.22,0,0,1,26.1,27a5.8,5.8,0,0,1,1.4-1.7,4.644,4.644,0,0,1,2-1.3s.1-.2,0-.2a3.858,3.858,0,0,0-2.2,1.1,23.047,23.047,0,0,0-4.6,5.7c-.4,1.1-.5,2.2-.9,3.3-1,.3-1.4-.8-2.2-1-.6-.4-1.6-.8-1.3-1.9.5-2,2.7-2.5,4.2-3.5.2-.2,0-.6.3-.8a4.885,4.885,0,0,0,3.1-2.3c-.2-.5.3-.7.1-1.1,0-.1.1-.3.1-.4a1.374,1.374,0,0,0-.5-.8c-.6-.1-1.1.2-1.7.1-.1-.1,0-.5-.2-.5-.3,0-.3.3-.5.4a3.615,3.615,0,0,0-1.5,1.5c-.7-.3-1.2.3-1.8.5-.7.6-2,.4-2.8.2-.4-.2-.2-.7-.2-1.1A2.57,2.57,0,0,1,18,21.5a14.583,14.583,0,0,1,3-.7c.3.2.1.8.6.6.1-.6-.3-1.4.5-1.6a14.269,14.269,0,0,0,3.5-.6v-.1c-.2-.3-.5,0-.8,0a9.737,9.737,0,0,1-2.4.2c0-.1-.1-.1-.1-.2-.4-.1-.6.3-1,.3a2.108,2.108,0,0,1-1.9.1c-.5-.3,0-1.1-.5-1.4-.1-.2.1-.3.2-.4a.55.55,0,0,0,.5-.3v-.3a1.7,1.7,0,0,1-1,0c-.1-.2.1-.6-.3-.7-.2,0-.6.1-.7-.3a8.331,8.331,0,0,1,.4-1.5c.1,0,.4,0,.4.2s0,.5.2.5c.3-.3.5-.8,1-.8a.367.367,0,0,0,.1-.3c-.4-.2-1,0-1.3-.3,0-.1-.2-.2-.1-.3.3-.3.6-.3,1-.5-.2-.3-.5-.1-.8-.1-.3-.1-.6.6-.8.1,0-.5-.5-1-.2-1.5.2,0,.3.1.5.2v.3h.1a15.872,15.872,0,0,1,2-.7c.2.1-.1.4.1.5a3.427,3.427,0,0,1,3.1.7c.3-.2-.1-.5-.1-.7a6.124,6.124,0,0,0-2.5-.7c0-.2-.2-.3-.4-.3-.3,0-.6.1-.9.1a.661.661,0,0,1-.1-.6,2.537,2.537,0,0,1,1.2.2c-.1-.3-.2-.7-.5-.7-.4-.1-.6.3-1,0-.2,0-.4,0-.5.2,0,.2,0,.4.2.5.1,0,.2,0,.2.2-.1.3-.5.1-.7.2-.6-.2-1.4-.2-1.6-.8,0-.5.4-.7.5-1,.5-.5.5-1.6,1.4-1.6A1.7,1.7,0,0,0,19.3,8.6Z"/><path class="c" d="M20.2,8.5a59.119,59.119,0,0,0,6.7,4.8c.1.1.2.3,0,.4a.44.44,0,0,1-.5-.1,74.915,74.915,0,0,1-6.5-4.5.749.749,0,0,1-.1-.5A.6.6,0,0,1,20.2,8.5Z"/><path class="d" d="M22.6,13.7c.1.1.3.1.2.3-.1.1-.3,0-.5.2.3.7,1.1.9,1.8,1.1,0,.1-.1.1-.2.2a2.977,2.977,0,0,1-2.3-1.4,3.178,3.178,0,0,1-1.5-.9c0-.1,0-.3.1-.3A3.335,3.335,0,0,0,22.6,13.7Z"/><path class="d" d="M25.3,14.3c.2,0,.3,0,.3.2s-.1.3-.2.3a3.775,3.775,0,0,1-2.3-.8v-.1A3.591,3.591,0,0,0,25.3,14.3Z"/><path class="c" d="M28.3,14.3a2.851,2.851,0,0,1-.8,2.5,1.384,1.384,0,0,1-1.4-.3v-.2a1.4,1.4,0,0,0,1.1,0c0-.1,0-.3-.2-.3-.4.2-.7-.1-1.1-.1v-.3c.2-.1.5-.1.6-.4-.1-.5.6-.5.6-1.1a.829.829,0,0,1,.8-.3C28,14,28.2,14.1,28.3,14.3Z"/><path class="c" d="M14.8,15.2c.2-.1.5,0,.8,0h0c.3-.1.5.1.8.2a1.506,1.506,0,0,1,.3,1.7.367.367,0,0,0-.3.1,1.063,1.063,0,0,1,.2,1.2.891.891,0,0,0-.5.8c.1.1.3-.1.5,0,.6.6.3,1.6.1,2.3-.3.6-.7,1.1-1.4,1.1a3.179,3.179,0,0,1-2.5-1.2c-.3-.3,0-.8-.4-1-.3,0-.3.4-.6.3s-.2-.7-.6-.6c-.3.5.8.9,0,1.3-.5.1-.8-.3-1.3-.3A2,2,0,0,1,9.5,19c.8-1.1.3-3,1.8-3.6a2.7,2.7,0,0,1,2.1-.7C13.8,14.9,14.4,14.8,14.8,15.2Z"/><path class="d" d="M16.2,16.3v.5c-.6-.1-.3,1.1-1,.8l-.2-.2c.1-.2.3,0,.4-.1.3-.3.2-.8.5-1.2C16,16.1,16.1,16.2,16.2,16.3Z"/><path class="d" d="M11.4,17.6a1.323,1.323,0,0,1-.2,1.2c-.3-.1-.1-.5-.3-.7-.4.3-.1.9-.6,1.2-.1,0-.2,0-.2-.2.4-.5.1-1.3.6-1.8C11.1,17.3,11.1,17.9,11.4,17.6Z"/><path class="d" d="M14.3,17.5h.1c0,.3-.2.4-.4.5-.3,0-.5-.2-.6.2-.1.3,0,.6-.3.7-.2-.1-.4-.3-.5,0v.9c-.1,0-.3,0-.3-.1a1.721,1.721,0,0,1,.4-1.6c.2.2.4.1.5-.1s.3-.7.6-.7C13.8,17.6,14.1,17.6,14.3,17.5Z"/><path class="d" d="M15.3,18.9c0,.2.1.5-.2.6H14c0-.4.7-.3.4-.7l-.3.1c0-.2.1-.1.2-.3C14.7,18.6,15.2,18.5,15.3,18.9Z"/><path class="d" d="M16.1,20.3c.1.2-.2.3-.3.3-.2,0-.2-.2-.3-.3C15.6,20.2,15.9,20.3,16.1,20.3Z"/><path class="d" d="M15.9,21.4c0,.1-.2.2-.4.2-.2-.1-.3-.3-.5-.2v-.2c.3.2.5-.2.8-.1.1,0,.2-.1.3,0C16.1,21.2,15.9,21.3,15.9,21.4Z"/><path class="c" d="M13.4,23c.3.3,1.2-.1,1.1.6l1.5.9,1.6,1.3h.2c.1-.2-.3-.4,0-.5,1.2.2,2.2-.6,3.2-1a.486.486,0,0,1,.6.3,7.512,7.512,0,0,1,.5,2.6c-.4.2-.7.5-1.1.5-.5-.3-.9.1-1.3.3-1.2.7-2.6,1.5-4.1.8-1.3.8-2.2-.7-3.5-.8-.2.1-.2.4-.2.6.2.1.5.1.8.2.7.4,1.1,1.2,2.2,1.1H15V30c-.4.3-1,.7-1.1,1.1.1.2.3.1.4,0,.8-.4,1.4-1.1,2.2-1.1.4.4-.4.7-.2,1.2a1.47,1.47,0,0,1,.5,1.6c-.3.4-.8.5-1,1,0,.2,0,.4.3.5.7,0,.8-1.4,1.8-.9.8.3,1.7.2,2.3.9a9.143,9.143,0,0,1,.7,1.4c-.1.3-.6.4-.9.5-1.5.6-3.2.8-4.6,1.3-1.4.1-2.5-.9-3.8-.2a3.8,3.8,0,0,1-2.3-.6c-.6-.5-.3-1.5-1.1-1.9-1.1-2.8.1-5.7.6-8.3.6-1.1.3-2.8,1.6-3.6a3.745,3.745,0,0,0,1.3-1.2c.6,0,.7.7,1.3.8Z"/><path class="c" d="M25.4,23c-.1.2.1.3.1.4a1.978,1.978,0,0,1-.2,1.1,3.482,3.482,0,0,1-2.4,1.4c-.5-.1-.7-.7-1-1.1A2.194,2.194,0,0,1,23,23c.2-.2.4.1.6,0,.5,0,1-.3,1.5-.2Z"/><path class="c" d="M15.2,39.2a1.689,1.689,0,0,1,.2,1.7,14.345,14.345,0,0,1-2.8.7c-.4,0-.9,0-1.1-.3-.1-.4-.7-.3-.7-.8-.1-.2-.4-.2-.5-.4.1-.3-.2-.5-.3-.8,0-.7.9-.6,1.4-.8.5-.8,1.6-.3,2.3-.1A3.606,3.606,0,0,1,15.2,39.2Z"/><path class="c" d="M28.6,41.8a3.915,3.915,0,0,1-1,.8,7.231,7.231,0,0,1-1.7-2.2c0-.1,0-.3.2-.3A3.408,3.408,0,0,1,28.6,41.8Z"/><path class="c" d="M23.8,42.3c.3.7.4,1.4.6,2-.3.3-.8.3-1.3.5A12.646,12.646,0,0,1,12.2,43a1.057,1.057,0,0,1,.6-.7c.5,0,1,.3,1.5.3a2.553,2.553,0,0,0,.9,0c.4,0,.7-.3,1.1-.5a12.1,12.1,0,0,1,1.9-.1,6.228,6.228,0,0,0,3.3.1,17.777,17.777,0,0,1,1.8-.8C23.8,41.4,23.6,42,23.8,42.3Z"/><path class="c" d="M26.1,41.7c.5.5.9.7,1.1,1.3a1,1,0,0,1-.5.4c-.3-.2-.5-.7-.9-.6-.1.4.3.6.3,1a4.179,4.179,0,0,1-1,.4,7.313,7.313,0,0,1-.7-1.9c.1-.8,1.1-.2,1.5-.5Z"/><path class="b" d="M63.3,19.4a5.508,5.508,0,1,1-5.8,5.5A5.555,5.555,0,0,1,63.3,19.4Zm0,8.8a3.1,3.1,0,0,0,3.1-3.3,3.164,3.164,0,0,0-3.1-3.3,3.1,3.1,0,0,0-3.1,3.3A3.1,3.1,0,0,0,63.3,28.2Z"/><path class="b" d="M71.3,27a4.5,4.5,0,0,0,2.9,1.2c.7,0,1.4-.3,1.4-.9,0-1.6-5.1-1.4-5.1-4.7,0-2,1.8-3.1,4-3.1A4.842,4.842,0,0,1,78,20.7l-1,1.9a4.139,4.139,0,0,0-2.6-.9c-.7,0-1.3.3-1.3.9,0,1.5,5.1,1.3,5.1,4.7,0,1.8-1.5,3.2-4,3.2A6.1,6.1,0,0,1,70.1,29Z"/><path class="b" d="M80.6,21.9H79.2V19.8h1.4v-3h2.6v3h2.4v2.1H83.2V26a1.925,1.925,0,0,0,2.1,2h.5v2.3a2.767,2.767,0,0,1-.8.1c-1.5,0-4.4-.4-4.4-4V21.9Z"/><path class="b" d="M92.7,19.4a5.508,5.508,0,1,1-5.8,5.5A5.555,5.555,0,0,1,92.7,19.4Zm0,8.8a3.1,3.1,0,0,0,3.1-3.3,3.164,3.164,0,0,0-3.1-3.3,3.1,3.1,0,0,0-3.1,3.3A3.1,3.1,0,0,0,92.7,28.2Z"/><path class="b" d="M100.4,19.6h2.5v1.9h0a4.1,4.1,0,0,1,3.7-2.2c2.3,0,3.7,1.2,3.7,4v6.8h-2.6V23.9c0-1.3-.3-2.1-1.7-2.1a2.909,2.909,0,0,0-2.8,2.1,5.9,5.9,0,0,0-.2,1.4v4.8h-2.6Z"/><path class="b" d="M124.4,15.3a7.474,7.474,0,0,1,5.4,2l-1.3,2a6.657,6.657,0,0,0-4-1.5,4.748,4.748,0,0,0-4.9,5,4.916,4.916,0,0,0,4.9,5.2,6.566,6.566,0,0,0,4.3-1.9l1.4,1.9a7.832,7.832,0,0,1-5.8,2.4,7.355,7.355,0,0,1-7.6-7.6A7.331,7.331,0,0,1,124.4,15.3Z"/><path class="b" d="M132,15.5h2.6v6h0a4.056,4.056,0,0,1,3.6-2.1c2.3,0,3.7,1.2,3.7,4v6.8h-2.6V24c0-1.3-.3-2.1-1.7-2.1a2.8,2.8,0,0,0-2.8,2.2,5.9,5.9,0,0,0-.2,1.4v4.8H132Z"/><path class="b" d="M158.9,19.4c2.3,0,3,1.3,3,1.3h0V15.5h2.6V30.2H162V28.6h0a3.675,3.675,0,0,1-3.3,1.8c-2.8,0-4.7-2.3-4.7-5.5C154.2,21.6,156.1,19.4,158.9,19.4Zm.5,8.8c1.4,0,2.6-1,2.6-3.3,0-1.6-.9-3.2-2.6-3.2-1.4,0-2.6,1.2-2.6,3.3C156.8,26.9,157.9,28.2,159.4,28.2Z"/><path class="b" d="M166.8,19.6h2.5v2.5h0a3.61,3.61,0,0,1,3.3-2.7h.5V22h-.6a2.983,2.983,0,0,0-2.9,2.2,4.678,4.678,0,0,0-.2,1.7v4.2h-2.6Z"/><path class="b" d="M179.3,19.4c3,0,4.7,2.2,4.7,5,0,.3-.1,1-.1,1h-7.3a3.073,3.073,0,0,0,3.2,2.8,4.926,4.926,0,0,0,3-1.2l1,1.9a6.525,6.525,0,0,1-4.2,1.5,5.412,5.412,0,0,1-5.7-5.5A5.339,5.339,0,0,1,179.3,19.4Zm2,4.2a2.022,2.022,0,0,0-2.1-2.2,2.412,2.412,0,0,0-2.5,2.2Z"/><path class="b" d="M185.9,19.6h2.5v1.9h0a4.1,4.1,0,0,1,3.7-2.2c2.3,0,3.7,1.2,3.7,4v6.8h-2.6V23.9c0-1.3-.3-2.1-1.7-2.1a2.909,2.909,0,0,0-2.8,2.1,5.9,5.9,0,0,0-.2,1.4v4.8h-2.6V19.6Z"/><path class="b" d="M212.6,15.5h2.7v6.2H222V15.5h2.7V30.2H222V24h-6.7v6.1h-2.7Z"/><path class="b" d="M232.3,19.4a5.508,5.508,0,1,1-5.8,5.5A5.555,5.555,0,0,1,232.3,19.4Zm0,8.8a3.1,3.1,0,0,0,3.1-3.3,3.164,3.164,0,0,0-3.1-3.3,3.1,3.1,0,0,0-3.1,3.3A3.1,3.1,0,0,0,232.3,28.2Z"/><path class="b" d="M240.3,27a4.5,4.5,0,0,0,2.9,1.2c.7,0,1.4-.3,1.4-.9,0-1.6-5.1-1.4-5.1-4.7,0-2,1.8-3.1,4-3.1a4.842,4.842,0,0,1,3.5,1.2l-1,1.9a4.139,4.139,0,0,0-2.6-.9c-.7,0-1.3.3-1.3.9,0,1.5,5.1,1.3,5.1,4.7,0,1.8-1.5,3.2-4,3.2a6.1,6.1,0,0,1-4.1-1.5Z"/><path class="b" d="M249.1,19.6h2.4v1.5h0a3.774,3.774,0,0,1,3.4-1.7c2.8,0,4.7,2.3,4.7,5.5,0,3.3-2,5.5-4.8,5.5a3.587,3.587,0,0,1-3-1.4h0v5.3h-2.6V19.6Zm5.2,8.6c1.4,0,2.6-1.2,2.6-3.3,0-2-1.1-3.3-2.6-3.3-1.4,0-2.6,1-2.6,3.3C251.7,26.6,252.5,28.2,254.3,28.2Z"/><path class="b" d="M267.3,21.9h-1.4V19.8h1.4v-3h2.6v3h2.4v2.1h-2.4V26a1.925,1.925,0,0,0,2.1,2h.5v2.3a2.767,2.767,0,0,1-.8.1c-1.5,0-4.4-.4-4.4-4V21.9Z"/><path class="b" d="M279.7,23.6h.4v-.1a1.762,1.762,0,0,0-2-1.9,5.76,5.76,0,0,0-2.9,1l-1-1.9a6.951,6.951,0,0,1,4.1-1.3c2.8,0,4.4,1.5,4.4,4.2v6.6h-2.4V28.6h0a3.434,3.434,0,0,1-3.2,1.9,3.338,3.338,0,0,1-3.6-3.3C273.5,23.8,278,23.6,279.7,23.6Zm-2,4.8a2.732,2.732,0,0,0,2.4-2.8v-.2h-.5c-1.3,0-3.5.2-3.5,1.7A1.551,1.551,0,0,0,277.7,28.4Z"/><path class="b" d="M199.2,27.1a4.5,4.5,0,0,0,2.9,1.2c.7,0,1.4-.3,1.4-1,0-1.6-5.1-1.4-5.1-4.8,0-2,1.8-3.1,4-3.1a4.842,4.842,0,0,1,3.5,1.2l-1,1.9a4.139,4.139,0,0,0-2.6-.9c-.7,0-1.3.3-1.3,1,0,1.5,5.1,1.3,5.1,4.7,0,1.8-1.5,3.2-4,3.2a5.915,5.915,0,0,1-4.1-1.6Z"/><path class="b" d="M149.7,30.2V15.5h2.6V30.2Z"/><path class="b" d="M285,30.2V15.5h2.6V30.2Z"/><path class="b" d="M198.9,16.9a1.43,1.43,0,0,1-1.4,1.4,1.347,1.347,0,0,1-1.3-1.4,1.415,1.415,0,0,1,1.3-1.4A1.367,1.367,0,0,1,198.9,16.9Z"/><path class="b" d="M196.7,19.6l-.3-.9c1.8-.5,1.6-1.7,1.5-1.8l.9-.2S199.3,18.8,196.7,19.6Z"/><path class="b" d="M46,15.5h5.2c2.6,0,4.5,1.4,4.5,3.8a3.417,3.417,0,0,1-1.8,3.1h0a3.5,3.5,0,0,1,2.4,3.4c0,2.9-2.4,4.3-5.1,4.3H46Zm5.2,6A1.708,1.708,0,0,0,53,19.6a1.664,1.664,0,0,0-1.9-1.8H48.6v3.7h2.6Zm.3,6.4a1.943,1.943,0,0,0,2.1-2.1,1.994,1.994,0,0,0-2.1-2.1H48.7v4.2h2.8Z"/><path class="b" d="M144.4,19.7H147V30.2h-2.6Z"/><path class="b" d="M147.2,16.9a1.5,1.5,0,1,1-1.5-1.5A1.473,1.473,0,0,1,147.2,16.9Z"/><path class="b" d="M261.5,19.7h2.6V30.2h-2.6Z"/><path class="b" d="M264.3,16.9a1.5,1.5,0,1,1-1.5-1.5A1.538,1.538,0,0,1,264.3,16.9Z"/></svg>